<svg width="20" height="20" viewBox="0 0 20 20" fill="none" xmlns="http://www.w3.org/2000/svg">
<g clip-path="url(#clip0_30_60)">
<path d="M19.0911 10.0839V7.27293C19.0911 6.31976 18.3518 5.54459 17.4177 5.46942L14.8072 0.909834C14.5653 0.488136 14.1747 0.186735 13.7072 0.0615805C13.242 -0.0627214 12.7556 0.00256164 12.3392 0.244901L3.39035 5.45476H1.81865C0.815929 5.45476 0.000488281 6.27016 0.000488281 7.27293V18.1818C0.000488281 19.1846 0.815887 20 1.81865 20H17.273C18.2757 20 19.0911 19.1846 19.0911 18.1818V15.3709C19.6191 15.1826 20.0002 14.6828 20.0002 14.091V11.3638C20.0002 10.772 19.6191 10.2722 19.0911 10.0839ZM16.3613 5.45476H12.3996L15.3709 3.72484L16.3613 5.45476ZM14.9193 2.93595L10.5928 5.45476H8.79827L14.4706 2.15226L14.9193 2.93595ZM12.7968 1.03056C13.0023 0.91026 13.2425 0.8783 13.472 0.939578C13.7041 1.00171 13.8977 1.15175 14.018 1.3617L14.0189 1.36336L6.99161 5.45476H5.19714L12.7968 1.03056ZM18.182 18.1818C18.182 18.683 17.7741 19.0909 17.273 19.0909H1.81865C1.31753 19.0909 0.909593 18.683 0.909593 18.1818V7.27293C0.909593 6.7718 1.31753 6.36386 1.81865 6.36386H17.273C17.7741 6.36386 18.182 6.7718 18.182 7.27293V10.0002H15.4548C13.9509 10.0002 12.7276 11.2235 12.7276 12.7274C12.7276 14.2313 13.9509 15.4546 15.4548 15.4546H18.182V18.1818ZM19.0911 14.091C19.0911 14.3418 18.8874 14.5455 18.6366 14.5455H15.4548C14.4521 14.5455 13.6366 13.7301 13.6366 12.7274C13.6366 11.7247 14.452 10.9092 15.4548 10.9092H18.6366C18.8874 10.9092 19.0911 11.1129 19.0911 11.3638V14.091Z" fill="black"/>
<path d="M15.4545 11.8183C14.9533 11.8183 14.5454 12.2263 14.5454 12.7274C14.5454 13.2285 14.9533 13.6364 15.4545 13.6364C15.9556 13.6364 16.3635 13.2285 16.3635 12.7274C16.3636 12.2263 15.9556 11.8183 15.4545 11.8183Z" fill="black"/>
</g>
<defs>
<clipPath id="clip0_30_60">
<rect width="20" height="20" fill="white"/>
</clipPath>
</defs>
</svg>
