<svg width="25" height="26" viewBox="0 0 25 26" fill="none" xmlns="http://www.w3.org/2000/svg">
<path fill-rule="evenodd" clip-rule="evenodd" d="M0 12.9252C0 15.1664 1.81689 16.9855 4.05957 16.9855H4.69531V18.4615C4.69531 19.0931 5.2085 19.6069 5.84033 19.6069H5.9502C6.07471 20.0164 6.23828 20.4084 6.43604 20.7792L6.35986 20.8553C5.91016 21.3033 5.91211 22.0308 6.3584 22.4772L7.43896 23.5596C7.88721 24.0046 8.61279 24.0067 9.06006 23.5602L9.13867 23.4818C9.50879 23.6793 9.90039 23.8427 10.3096 23.967V24.0768C10.3096 24.7073 10.8223 25.2234 11.4561 25.2234H12.9854C13.6172 25.2234 14.1323 24.7083 14.1323 24.0768V23.9669C14.5405 23.8425 14.9321 23.6791 15.3022 23.4819L15.3799 23.5598C15.8262 24.006 16.5547 24.0059 17.001 23.5599L18.0845 22.4761C18.5278 22.0297 18.5298 21.3035 18.083 20.8568L18.0049 20.7786C18.2026 20.4081 18.3662 20.0162 18.4912 19.6069H18.6001C19.23 19.6069 19.7466 19.095 19.7466 18.4615V16.9855H20.3823C22.6235 16.9855 24.4424 15.1666 24.4424 12.9252C24.4424 11.5045 23.7129 10.2557 22.6104 9.53064C22.7139 9.13544 22.769 8.72119 22.769 8.29413C22.769 5.59991 20.5835 3.41595 17.8901 3.41595C17.7891 3.41595 17.6885 3.41895 17.5889 3.42493C17.5259 3.42871 17.4629 3.43365 17.4004 3.43988C16.5493 1.41949 14.5513 0 12.2202 0C9.88916 0 7.8916 1.41949 7.04053 3.43982C6.87891 3.42383 6.71533 3.41595 6.55078 3.41595C3.85693 3.41595 1.67334 5.60016 1.67334 8.29413C1.67334 8.72119 1.72852 9.13544 1.83154 9.53064C0.729004 10.2557 0 11.5045 0 12.9252ZM19.1465 15.7855H20.3823C21.9609 15.7855 23.2422 14.504 23.2422 12.9252C23.2422 11.7933 22.5854 10.8148 21.6304 10.3506C21.3511 10.215 21.2212 9.88898 21.3311 9.59875C21.4844 9.19305 21.5693 8.75415 21.5693 8.29413C21.5693 6.263 19.9214 4.61591 17.8901 4.61591C17.6274 4.61591 17.3745 4.64227 17.1323 4.69403C17.0674 4.70795 17.0024 4.71069 16.9395 4.70349C16.8774 4.69641 16.8174 4.67969 16.7612 4.65448C16.668 4.61237 16.5854 4.54651 16.5234 4.46234C16.5068 4.43988 16.4917 4.41608 16.4785 4.39111C16.4609 4.3587 16.4463 4.32422 16.4351 4.28796C15.8696 2.49689 14.1958 1.20001 12.2202 1.20001C10.2451 1.20001 8.57129 2.49689 8.00586 4.28796C7.9126 4.58301 7.61035 4.75885 7.30762 4.69385C7.06738 4.64233 6.81348 4.61591 6.55078 4.61591C4.52002 4.61591 2.87305 6.26276 2.87305 8.29413C2.87305 8.56116 2.90137 8.82104 2.95557 9.07147C2.99463 9.2525 3.04688 9.42853 3.11133 9.59875C3.2207 9.88898 3.09131 10.2151 2.81201 10.3506C1.85645 10.8148 1.2002 11.7933 1.2002 12.9252C1.2002 14.5042 2.47998 15.7855 4.05957 15.7855H5.29541H8.68604H8.71631H10.0283C10.3599 15.7855 10.6284 16.0541 10.6284 16.3854C10.6284 16.7167 10.3599 16.9855 10.0283 16.9855H9.146L9.12305 17.0947C9.11475 17.1365 9.10742 17.1787 9.10107 17.2212L9.09082 17.2938L9.0791 17.4045C9.0752 17.4476 9.07227 17.491 9.07031 17.5346C9.06738 17.5881 9.06592 17.642 9.06592 17.6962C9.06592 19.4395 10.4785 20.8511 12.2202 20.8511C13.9634 20.8511 15.376 19.4393 15.376 17.6962C15.376 17.5539 15.3667 17.4139 15.3481 17.2766C15.3394 17.2113 15.3286 17.1467 15.3159 17.0827L15.2949 16.9855H14.4126C14.0811 16.9855 13.8125 16.7167 13.8125 16.3854C13.8125 16.0541 14.0811 15.7855 14.4126 15.7855H15.7241H15.7544H19.1465ZM5.89551 16.9855H7.92334C7.88525 17.217 7.86572 17.4544 7.86572 17.6962C7.86572 20.1024 9.81592 22.0511 12.2202 22.0511C14.6255 22.0511 16.5762 20.1025 16.5762 17.6962C16.5762 17.4542 16.5562 17.2167 16.5176 16.9855H18.5464V18.4069H18.0298C17.873 18.4069 17.7275 18.4677 17.6191 18.5692C17.5342 18.649 17.4717 18.7542 17.4443 18.8746C17.3076 19.4805 17.0688 20.0469 16.7471 20.5566C16.5977 20.7938 16.6323 21.1028 16.8306 21.301L17.1963 21.6671L16.1904 22.6732L15.8247 22.3071C15.6265 22.1089 15.3174 22.0743 15.0801 22.2239C14.8154 22.3908 14.5361 22.5353 14.2441 22.6547C14.1504 22.6931 14.0552 22.7289 13.9585 22.762C13.7769 22.8243 13.5908 22.8771 13.4009 22.9197C13.2988 22.9426 13.2075 22.9908 13.1333 23.0568C13.0874 23.0975 13.0483 23.1448 13.0171 23.1972C12.9971 23.2306 12.9805 23.2661 12.9673 23.3031C12.9443 23.3666 12.9321 23.4346 12.9321 23.5051V24.0234H11.5098V23.5051C11.5098 23.2242 11.3149 22.981 11.041 22.9197C10.436 22.7842 9.87012 22.5455 9.3623 22.2244C9.12549 22.0746 8.81641 22.1086 8.61768 22.3065L8.25 22.6732L7.24512 21.6671L7.61133 21.301C7.67822 21.2343 7.72656 21.1552 7.75537 21.0704C7.78174 20.9924 7.79199 20.9095 7.78516 20.8275C7.78076 20.7756 7.76953 20.7239 7.75195 20.674C7.7373 20.6332 7.71777 20.5936 7.69385 20.5557C7.37158 20.0464 7.13281 19.4808 6.99756 18.8759C6.93604 18.6017 6.69287 18.4069 6.41211 18.4069H5.89551V16.9855ZM17.3779 12.944C17.709 12.944 17.978 12.6755 17.978 12.3441V7.52747C17.978 7.37372 17.9199 7.23346 17.8247 7.12726C17.7148 7.00464 17.5552 6.92749 17.3779 6.92749C17.0464 6.92749 16.7778 7.19611 16.7778 7.52747V12.3441C16.7778 12.6755 17.0464 12.944 17.3779 12.944ZM12.7236 12.4327C12.7236 12.764 12.4546 13.0328 12.1235 13.0328C11.792 13.0328 11.5234 12.764 11.5234 12.4327V7.52753C11.5234 7.38257 11.5752 7.24957 11.6606 7.14587C11.6729 7.13104 11.6846 7.11761 11.6982 7.10406C11.7627 7.03931 11.8423 6.98901 11.9316 6.95892C11.96 6.9494 11.9893 6.94189 12.019 6.93665C12.0532 6.93066 12.0879 6.92755 12.1235 6.92755L13.4893 6.92749C14.5693 6.92749 15.501 7.80103 15.501 8.91156C15.501 10.0239 14.5688 10.8956 13.4893 10.8956L12.7236 10.8988V12.4327ZM12.73 9.69873L12.7275 8.91156L12.7256 8.1275H13.4893C13.9375 8.1275 14.3008 8.49414 14.3008 8.91156C14.3008 9.33008 13.9375 9.69568 13.4893 9.69568L12.73 9.69873ZM10.208 12.2209C10.3252 12.5309 10.1685 12.8771 9.8584 12.9941C9.54834 13.1111 9.20215 12.9547 9.08545 12.6447L8.77734 11.8286H6.64648L6.33496 12.6462C6.21729 12.9559 5.87061 13.1113 5.56104 12.9935C5.40723 12.9348 5.29102 12.8198 5.22803 12.6808C5.18896 12.5946 5.16992 12.4991 5.1748 12.4023C5.17822 12.3412 5.19092 12.2795 5.21387 12.2192L7.05566 7.38312L7.06006 7.37256C7.29932 6.77844 8.13867 6.77911 8.37793 7.37225L10.208 12.2209ZM7.7168 9.01898L8.32422 10.6285H7.10352L7.7168 9.01898ZM12.2241 16.9855C11.8892 16.9855 11.6206 16.7167 11.6206 16.3854C11.6206 16.0541 11.8892 15.7855 12.2207 15.7855C12.5552 15.7855 12.8242 16.0541 12.8242 16.3854C12.8242 16.7167 12.5552 16.9855 12.2241 16.9855Z" fill="#666666"/>
</svg>
