<svg width="27" height="27" viewBox="0 0 27 27" fill="none" xmlns="http://www.w3.org/2000/svg">
<path fill-rule="evenodd" clip-rule="evenodd" d="M8.27881 21.6725C7.16162 21.1149 6.35254 20.018 6.2085 18.7017L5.49023 12.1358C5.48242 12.1146 5.47607 12.0927 5.47119 12.0704C5.46094 12.0268 5.45557 11.9814 5.45557 11.9348L5.45703 11.8961L5.45996 11.8608L4.68506 4.7785C4.41309 2.73059 2.6665 1.20001 0.600098 1.20001C0.268555 1.20001 0 0.931396 0 0.600037C0 0.268677 0.268555 0 0.600098 0C3.271 0 5.52832 1.98022 5.87549 4.62854L6.00098 5.77576L6.05566 5.77332H25.6001C25.7803 5.77332 25.9512 5.85443 26.0649 5.9942C26.1792 6.13397 26.2241 6.31763 26.1875 6.49426L25.9043 7.8714C25.8374 8.19598 25.52 8.40491 25.1953 8.33807C24.9761 8.29291 24.8096 8.13318 24.7456 7.93414C24.7148 7.83881 24.7075 7.7345 24.729 7.62939L24.8638 6.97327H19.5415L19.1929 11.3347H24.4551C24.6353 11.3347 24.8062 11.4158 24.9199 11.5557C24.9653 11.611 24.9995 11.6733 25.022 11.7393C25.0566 11.8398 25.0645 11.949 25.0425 12.0557L24.4854 14.7623C24.124 16.5182 22.5781 17.7783 20.7852 17.7783H7.31445L7.40137 18.571C7.54443 19.8785 8.64893 20.8687 9.96387 20.8687H10.1865H20.6743C22.146 20.8687 23.3398 22.0621 23.3398 23.5344C23.3398 25.0065 22.146 26.2 20.6738 26.2C19.2017 26.2 18.0083 25.0065 18.0083 23.5344C18.0083 22.9929 18.1694 22.4892 18.4468 22.0687H12.4136C12.5796 22.3203 12.7041 22.6017 12.7773 22.9031C12.8267 23.1055 12.8525 23.3169 12.8525 23.5344C12.8525 25.0065 11.6587 26.2 10.1865 26.2C8.71436 26.2 7.521 25.0065 7.521 23.5344C7.521 22.8099 7.81006 22.153 8.27881 21.6725ZM17.9888 11.3347L18.3374 6.97327H12.4175L12.7661 11.3347H17.9888ZM17.8926 12.5347L17.5693 16.5783H13.1855L12.8623 12.5347H17.8926ZM18.7734 16.5783L19.0967 12.5347H23.7188L23.3101 14.5203C23.0635 15.7185 22.0083 16.5783 20.7852 16.5783H18.7734ZM6.13232 6.97327H11.2134L11.5625 11.3347H6.60938L6.13232 6.97327ZM6.74072 12.5347H11.6587L11.9819 16.5783H7.18311L6.74072 12.5347ZM10.1865 22.0687C9.37744 22.0687 8.72119 22.7249 8.72119 23.5344C8.72119 24.3438 9.37744 25.0001 10.1865 25.0001C10.9961 25.0001 11.6523 24.3438 11.6523 23.5344C11.6523 22.7249 10.9961 22.0687 10.1865 22.0687ZM20.6743 22.0687C19.8643 22.0687 19.2085 22.7249 19.2085 23.5344C19.2085 24.3438 19.8643 25.0001 20.6738 25.0001C21.4834 25.0001 22.1396 24.3438 22.1396 23.5344C22.1396 22.7249 21.4834 22.0687 20.6743 22.0687Z" fill="#696969"/>
</svg>
